<?xml version="1.0"?>
<!DOCTYPE svg PUBLIC "-//W3C//DTD SVG 1.0//EN" "http://www.w3.org/TR/2001/REC-SVG-20010904/DTD/svg10.dtd">
<svg xmlns="http://www.w3.org/2000/svg" xmlns:xlink="http://www.w3.org/1999/xlink" xmlns:jfreesvg="http://www.jfree.org/jfreesvg/svg" width="320" height="240" text-rendering="auto" shape-rendering="auto">
<defs></defs>
<ellipse cx="50" cy="50" rx="50" ry="25" style="fill: rgb(255,75,0); fill-opacity: 1.0" /><ellipse cx="50" cy="50" rx="50" ry="25" style="stroke-width: 1.0;stroke: rgb(0,0,0);stroke-opacity: 1.0;stroke-linecap: square;; fill: none" /><g style="stroke-width: 1.0;stroke: rgb(3,175,122);stroke-opacity: 1.0;stroke-linecap: round;stroke-linejoin: round;; fill: none" ><path d="M 125 25 C 200 25 100 75 175 75"/></g><g style="stroke-width: 1.0;stroke: rgb(0,0,0);stroke-opacity: 1.0;stroke-linecap: round;stroke-linejoin: round;; fill: none" ><path d="M 125 25 L 200 25 L 100 75 L 175 75"/></g><g style="fill: rgb(77,196,255); fill-opacity: 1.0; stroke: none" ><path d="M 25 100 C 11.19 100 0 111.19 0 125 C 0 127.92 0.5 130.73 1.42 133.33 L 1.42 133.33 C 0.5 138.55 0 144.16 0 150 C 0 177.61 11.19 200 25 200 C 38.81 200 50 177.61 50 150 C 77.61 150 100 138.81 100 125 C 100 111.19 77.61 100 50 100 C 44.16 100 38.55 100.5 33.33 101.42 L 33.33 101.42 C 30.73 100.5 27.92 100 25 100 Z "/></g><g style="fill: rgb(0,90,255); fill-opacity: 1.0; stroke: none" ><path d="M 31.58 101.75 C 22.95 103.46 15.49 106.34 10 110 L 10 110 C 6.34 115.49 3.46 122.95 1.75 131.58 L 1.75 131.58 C 6.06 139.51 17.98 145.86 33.33 148.58 L 33.33 148.58 C 40.44 146.07 46.07 140.44 48.58 133.33 L 48.58 133.33 C 45.86 117.98 39.51 106.06 31.58 101.75 Z "/></g><g style="stroke-width: 1.0;stroke: rgb(0,0,0);stroke-opacity: 1.0;stroke-linecap: round;stroke-linejoin: round;; fill: none" ><path d="M 25 100 C 11.19 100 0 111.19 0 125 C 0 127.92 0.5 130.73 1.42 133.33 L 1.42 133.33 C 0.5 138.55 0 144.16 0 150 C 0 177.61 11.19 200 25 200 C 38.81 200 50 177.61 50 150 C 77.61 150 100 138.81 100 125 C 100 111.19 77.61 100 50 100 C 44.16 100 38.55 100.5 33.33 101.42 L 33.33 101.42 C 30.73 100.5 27.92 100 25 100 Z "/></g><g style="stroke-width: 1.0;stroke: rgb(0,0,0);stroke-opacity: 1.0;stroke-linecap: round;stroke-linejoin: round;; fill: none" ><path d="M 31.58 101.75 C 22.95 103.46 15.49 106.34 10 110 L 10 110 C 6.34 115.49 3.46 122.95 1.75 131.58 L 1.75 131.58 C 6.06 139.51 17.98 145.86 33.33 148.58 L 33.33 148.58 C 40.44 146.07 46.07 140.44 48.58 133.33 L 48.58 133.33 C 45.86 117.98 39.51 106.06 31.58 101.75 Z "/></g><g style="fill: rgb(255,241,0); fill-opacity: 1.0; stroke: none" ><path d="M 114.64 185.36 C 134.17 204.88 165.83 204.88 185.36 185.36 C 204.88 165.83 204.88 134.17 185.36 114.64 C 165.83 95.12 134.17 95.12 114.64 114.64 L 150 150 Z "/></g><g style="stroke-width: 1.0;stroke: rgb(0,0,0);stroke-opacity: 1.0;stroke-linecap: round;stroke-linejoin: round;; fill: none" ><path d="M 114.64 185.36 C 134.17 204.88 165.83 204.88 185.36 185.36 C 204.88 165.83 204.88 134.17 185.36 114.64 C 165.83 95.12 134.17 95.12 114.64 114.64 L 150 150 Z "/></g></svg>
